<svg xmlns="http://www.w3.org/2000/svg" viewBox="0 0 429.1 630.81"><defs><style>.cls-1{fill:#9bc1bc;}.cls-2{fill:#5ca4a9;opacity:0.79;}.cls-3{fill:#222;}.cls-4{fill:#f2f2f3;opacity:0.36;}</style></defs><g id="portrait"><path class="cls-1" d="M102.61,530.56s-49.93,50.44-82,15.63S-14.36,260.46,73.46,184c74-64.43,189.11-91.67,267.52-39.51a159.24,159.24,0,0,1,39.67,37.93c73.5,99,54.56,259.78,1.62,316.32S171.7,659,139.58,623.64,102.61,530.56,102.61,530.56Z"/><polygon class="cls-2" points="395.31 75.86 325.87 176.59 359.94 0 395.31 75.86"/><polygon class="cls-3" points="89.63 519.99 110.22 530.76 129.91 578.25 107.03 550.67 108.75 572.87 98.77 543.77 91.87 552.03 93.95 537.82 73.82 552.13 86.27 531.31 71 530.56 89.63 519.99"/><path class="cls-4" d="M360.59,198.05s19.77,94.48,20.2,136.05-21.19,131.33-10.1,136,43.53-96.37,37.48-147.38S371.29,187.66,360.59,198.05Z"/></g></svg>