<svg xmlns="http://www.w3.org/2000/svg" viewBox="0 0 227.3 372.38"><defs><style>.cls-1{fill:#9bc1bc;}</style></defs><g id="portrait"><path class="cls-1" d="M36.82,180.16,96.58,283.68a19.71,19.71,0,0,0,34.14,0l59.77-103.52a19.71,19.71,0,0,1,17.07-9.86h0a19.72,19.72,0,0,1,17.07,29.58L130.72,362.52a19.7,19.7,0,0,1-34.14,0L2.67,199.88A19.72,19.72,0,0,1,19.74,170.3h0A19.73,19.73,0,0,1,36.82,180.16Z"/><path class="cls-1" d="M110.06,0h6.38a15.75,15.75,0,0,1,15.75,15.75V301.59a5.26,5.26,0,0,1-5.26,5.26H100.37a5.26,5.26,0,0,1-5.26-5.26V14.94A14.94,14.94,0,0,1,110.06,0Z"/></g></svg>