<svg xmlns="http://www.w3.org/2000/svg" viewBox="0 0 372.38 227.3"><defs><style>.cls-1{fill:#9bc1bc;}</style></defs><g id="portrait"><path class="cls-1" d="M180.16,190.49l103.52-59.77a19.71,19.71,0,0,0,0-34.14L180.16,36.82a19.73,19.73,0,0,1-9.86-17.08h0A19.72,19.72,0,0,1,199.88,2.67L362.52,96.58a19.7,19.7,0,0,1,0,34.14L199.88,224.63a19.72,19.72,0,0,1-29.58-17.07h0A19.71,19.71,0,0,1,180.16,190.49Z"/><path class="cls-1" d="M149.83-39.77h6.38A15.75,15.75,0,0,1,172-24V261.82a5.26,5.26,0,0,1-5.26,5.26H140.15a5.26,5.26,0,0,1-5.26-5.26V-24.83A14.94,14.94,0,0,1,149.83-39.77Z" transform="translate(39.77 267.08) rotate(-90)"/></g></svg>