<svg xmlns="http://www.w3.org/2000/svg" viewBox="0 0 689.15 267.21"><defs><style>.cls-1{fill:#e9ae8c;}</style></defs><g id="portrait"><path class="cls-1" d="M213,40.8,98.29,107a21.85,21.85,0,0,0,0,37.84L213,211.08A21.87,21.87,0,0,1,223.93,230h0a21.85,21.85,0,0,1-32.77,18.92L10.92,144.86a21.85,21.85,0,0,1,0-37.84L191.16,3a21.85,21.85,0,0,1,32.77,18.92h0A21.87,21.87,0,0,1,213,40.8Z"/><path class="cls-1" d="M476.15,56.12l114.71,66.23a21.85,21.85,0,0,1,0,37.84L476.15,226.41a21.85,21.85,0,0,0-10.92,18.92h0A21.84,21.84,0,0,0,498,264.25L678.23,160.19a21.84,21.84,0,0,0,0-37.84L498,18.29a21.84,21.84,0,0,0-32.77,18.92h0A21.83,21.83,0,0,0,476.15,56.12Z"/></g></svg>