<svg id="Layer_1" data-name="Layer 1" xmlns="http://www.w3.org/2000/svg" viewBox="0 0 556.02 603.46"><defs><style>.cls-1{fill:#e9ae8c;}.cls-2{fill:#9bc1bc;}.cls-3{fill:#e7e7e7;}</style></defs><polygon class="cls-1" points="0 241 0 592.08 11.28 582.76 212.54 416.54 0 241"/><polygon class="cls-1" points="229.62 428.88 278.96 468.73 328.3 428.88 538.94 603.46 18.98 603.46 229.62 428.88"/><polygon class="cls-1" points="556.02 241 556.02 592.08 345.38 416.54 556.02 241"/><polygon class="cls-1" points="0 214.44 56.93 167 56.93 259.98 0 214.44"/><polygon class="cls-1" points="492.54 167 492.54 259.98 548.43 213.49 492.54 167"/><polygon class="cls-2" points="79.7 278.96 278.96 444.06 478.21 278.96 478.21 0 79.7 0 79.7 278.96"/><path class="cls-3" d="M326.13,222.66a22.27,22.27,0,0,0,5.92,3,23.71,23.71,0,0,0,7.78,1.16,25.12,25.12,0,0,0,13.36-3.48,28.56,28.56,0,0,0,9.52-9.87,49.21,49.21,0,0,0,5.69-15.21A93.59,93.59,0,0,0,370.26,179a79.35,79.35,0,0,0-5.58-30.19,65.92,65.92,0,0,0-15.91-23.45,73,73,0,0,0-25-15.21,93.07,93.07,0,0,0-32.74-5.46,101.08,101.08,0,0,0-36.7,6.38,78.07,78.07,0,0,0-28,18.12,81,81,0,0,0-17.76,28.1,100.87,100.87,0,0,0-6.27,36.34,95.63,95.63,0,0,0,5.92,34.49,76.1,76.1,0,0,0,16.6,26.35,72.62,72.62,0,0,0,25.78,16.84,90.79,90.79,0,0,0,33.44,5.92,103.49,103.49,0,0,0,15.56-1A86.93,86.93,0,0,0,311,273.75a9.83,9.83,0,0,1,3,7.2q0,5.34-6.85,8.36t-24.5,3a112,112,0,0,1-40.3-7,89.62,89.62,0,0,1-31.23-19.74,86.88,86.88,0,0,1-20.09-31q-7.08-18.23-7.08-41,0-23.44,7.55-42.73A92.13,92.13,0,0,1,213,118a96,96,0,0,1,33.67-21q19.74-7.42,44.12-7.43,22.76,0,40.88,6.39a86.46,86.46,0,0,1,30.77,18.23,79.69,79.69,0,0,1,19.39,28.33q6.74,16.5,6.73,36.69,0,30.2-12.31,46.56t-36.46,16.38a45.52,45.52,0,0,1-14.28-2.33,37.62,37.62,0,0,1-12.42-6.73,42.88,42.88,0,0,1-11.61,5.69,57.36,57.36,0,0,1-34.49-.93,39.7,39.7,0,0,1-14.17-9.06,40.3,40.3,0,0,1-9.17-14.63,55.68,55.68,0,0,1-3.25-19.62,61.65,61.65,0,0,1,3.83-22.41,47.05,47.05,0,0,1,10.8-16.72A46.41,46.41,0,0,1,271.91,145a63.63,63.63,0,0,1,21.94-3.6,66.64,66.64,0,0,1,15.79,1.86,57.51,57.51,0,0,1,13,4.64q9.53,4.88,9.52,11.38c0,1.09,0,2.25-.12,3.49s-.19,2.4-.34,3.48Zm-66.65-28.1q0,15.1,7.55,23.11t21,8a31.37,31.37,0,0,0,20-7l5.8-57.59a42.62,42.62,0,0,0-9.05-3.14,52.83,52.83,0,0,0-12.08-1.27q-14.87,0-24,9.87T259.48,194.56Z"/></svg>