<svg xmlns="http://www.w3.org/2000/svg" viewBox="0 0 220.49 265.06"><defs><style>.cls-1{fill:#f69277;}</style></defs><g id="footprints"><path class="cls-1" d="M76.7,264c44.74,8.81,52.4-39.86,72-68.27C162,176.45,190,169.1,201.1,155.11c9.57-8.1,19.39-63.42,19.39-63.42S185.16,95,172.55,104.26c-16.59,16.15-34.47,32-45.4,26.9-5.89-19.33,5.67-35.1,12.4-46.87,8.93-27-5.67-84.29-5.67-84.29S92.68,53.81,90.15,67.26c-4.2,24.39-2.9,50-13.45,52.13C63.81,122,52.84,102.89,49.48,80.66c-7.25-20.49-38.36-47-38.36-47S-4,89.12,1,109.3C13.75,135,40.23,167.21,35.5,190.86,24.37,246.52,54,259.53,76.7,264Z"/></g></svg>