<svg xmlns="http://www.w3.org/2000/svg" viewBox="0 0 1923.5 5699.02"><defs><style>.cls-1,.cls-2{opacity:0.8;}.cls-2,.cls-3{fill:#f69277;}.cls-3{opacity:0.79;}</style></defs><g id="portrait"><text class="cls-1"/><path class="cls-2" d="M660,1314.84c-5.37-9.81-15.74-3.6-24.17-2.81-5.72.53-11.52-3.6-15.9-3.49-3-.53-15,6.32-15,6.32s6.18,6.13,9.91,7.05c5.65.59,11.43,1.47,12.2,4.32-2.71,4.15-7.5,4.45-10.78,5-6.49,2.56-15,14.32-15,14.32s16.61-.7,19.55-2.34c5.25-3,9.86-7.31,11.93-5.66,2.52,2,.64,7.08-3,11.21-2.72,4.59-2.82,14.62-2.82,14.62s12.83-5.87,15.84-10c2.83-6.43,4.74-16.49,9.94-19.31C664.94,1327.45,662.74,1319.83,660,1314.84Z"/><path class="cls-2" d="M977,1217.56c-5.19-9.91-15.68-3.9-24.12-3.27-5.73.42-11.44-3.82-15.83-3.79-3-.58-15.11,6-15.11,6s6.07,6.24,9.78,7.24c5.63.69,11.4,1.68,12.12,4.55-2.8,4.09-7.59,4.3-10.87,4.83-6.54,2.44-15.25,14-15.25,14s16.62-.38,19.58-2c5.31-2.94,10-7.12,12-5.44,2.48,2.06.51,7.1-3.23,11.16-2.8,4.54-3.1,14.57-3.1,14.57s12.94-5.64,16-9.7c3-6.38,5-16.4,10.3-19.13C981.65,1230.26,979.59,1222.6,977,1217.56Z"/><path class="cls-3" d="M1307.79,1130.38c-5.18-9.91-15.67-3.9-24.11-3.27-5.73.42-11.45-3.82-15.83-3.79-3-.58-15.11,6-15.11,6s6.06,6.25,9.77,7.24c5.64.69,11.41,1.68,12.12,4.55-2.79,4.09-7.58,4.3-10.87,4.83-6.54,2.44-15.25,14-15.25,14s16.63-.38,19.59-2c5.31-2.94,10-7.12,12-5.44,2.49,2.06.51,7.1-3.22,11.16-2.81,4.54-3.1,14.57-3.1,14.57s12.94-5.64,16-9.7c3-6.38,5.05-16.4,10.3-19.13C1312.49,1143.08,1310.43,1135.42,1307.79,1130.38Z"/><path class="cls-2" d="M405.31,1449.06c-10.17-6-16.2,5.25-23.41,10.51-4.89,3.58-12.36,3-16.26,5.44-3,1.16-10.16,13.82-10.16,13.82s8.91,2.21,12.78,1c5.43-2.52,11.14-4.85,13.38-2.69-.22,5.23-4.38,8.09-7,10.39-4.49,5.83-5.82,21.06-5.82,21.06s14.66-9.62,16.42-12.69c3.11-5.59,5-12,7.74-11.57,3.37.46,4.41,6.07,3.33,11.78,0,5.62,5.35,14.76,5.35,14.76s8.44-12.25,8.93-17.61c-.91-7.36-4.62-17.49-1.45-22.86C416.59,1457.8,410.48,1452.1,405.31,1449.06Z"/><path class="cls-2" d="M271.42,1695.66c-11.44-2.85-14,9.63-19.46,16.72-3.67,4.81-11,6.35-14.06,9.82-2.57,2-5.81,16.14-5.81,16.14s9.17-.41,12.54-2.64c4.49-4,9.31-7.81,12.07-6.37,1.28,5.07-1.91,9-3.8,12-2.65,6.86.39,21.85.39,21.85s11.33-13.38,12.15-16.82c1.4-6.25,1.39-12.87,4.14-13.3,3.37-.51,6,4.57,6.54,10.36,1.61,5.38,9.31,12.63,9.31,12.63s4.62-14.14,3.57-19.42c-3-6.79-9.39-15.45-7.86-21.5C284.72,1700.84,277.25,1697.11,271.42,1695.66Z"/><path class="cls-2" d="M395.47,1952.35c-9.32,7.22-1.13,17,1.08,25.63,1.51,5.87-1.82,12.58-1,17.13-.05,3.24,9.07,14.55,9.07,14.55s5.35-7.45,5.69-11.48c-.33-6-.37-12.15,2.47-13.42,4.77,2.13,5.88,7.07,7,10.38,3.75,6.33,17.4,13.21,17.4,13.21s-3.49-17.17-5.68-19.95c-4-5-9.25-9.06-7.88-11.48,1.67-3,7.27-1.85,12.17,1.27,5.23,2.07,15.69.51,15.69.51s-8.25-12.38-13-14.82c-7.17-1.88-17.95-2.2-21.76-7.14C407.77,1945.12,400.21,1948.67,395.47,1952.35Z"/><path class="cls-2" d="M758.56,1194.24c5.65,9.9-5.27,15.6-10.45,22.5-3.51,4.69-3,11.93-5.45,15.67-1.15,2.92-13.48,9.66-13.48,9.66s-2-8.64-.85-12.37c2.51-5.22,4.83-10.72,2.76-12.91-5.06.15-7.87,4.15-10.13,6.68-5.69,4.28-20.43,5.38-20.43,5.38s9.47-14.06,12.46-15.73c5.44-2.94,11.61-4.67,11.28-7.35-.4-3.26-5.81-4.34-11.35-3.36-5.44-.08-14.21-5.34-14.21-5.34s11.95-8,17.13-8.43c7.11,1,16.86,4.67,22.09,1.66C750.23,1183.22,755.68,1189.2,758.56,1194.24Z"/><path class="cls-2" d="M1108.34,1111.84c5.55,10-5.44,15.54-10.7,22.39-3.56,4.64-3.15,11.88-5.63,15.6-1.18,2.9-13.59,9.5-13.59,9.5s-1.93-8.66-.71-12.37c2.57-5.2,5-10.67,2.91-12.88-5.06.09-7.92,4.06-10.2,6.56-5.74,4.21-20.5,5.15-20.5,5.15s9.64-14,12.64-15.59c5.48-2.88,11.67-4.54,11.37-7.22-.37-3.27-5.76-4.4-11.31-3.49-5.44-.15-14.15-5.51-14.15-5.51s12-7.87,17.23-8.23c7.09,1,16.8,4.87,22.06,1.92C1100.15,1100.73,1105.52,1106.77,1108.34,1111.84Z"/><path class="cls-2" d="M502.53,1280.52c6.41,10.08-4.74,16.59-9.81,24.07-3.44,5.08-2.56,12.62-4.92,16.67-1.06,3.1-13.63,10.77-13.63,10.77s-2.55-8.94-1.5-12.9c2.36-5.58,4.52-11.45,2.24-13.64-5.28.41-8,4.73-10.26,7.49-5.74,4.76-21.11,6.65-21.11,6.65s9.21-15.18,12.25-17.08c5.55-3.35,11.92-5.47,11.44-8.25-.58-3.4-6.3-4.25-12-3-5.7.18-15.14-4.88-15.14-4.88s12.1-9,17.51-9.68c7.48.66,17.87,4,23.19.64C493.27,1269.41,499.27,1275.39,502.53,1280.52Z"/><path class="cls-2" d="M223.74,1522c11.79,4.41,6.54,17,7,26.48.33,6.46,5.85,12.25,6.44,17.15,1.07,3.29-4.63,17.72-4.63,17.72s-7.83-5.9-9.45-9.9c-1.56-6.2-3.48-12.51-6.78-12.91-4.19,3.7-3.75,9.08-3.87,12.82-1.82,7.65-13.55,19-13.55,19s-1.89-18.62-.54-22.15c2.55-6.34,6.56-12.17,4.39-14.21-2.65-2.49-8,.43-12,5.17-4.67,3.76-15.83,5.5-15.83,5.5s4.48-15.24,8.59-19.26c6.71-4.19,17.61-7.93,19.92-14.18C208.9,1518.5,217.74,1519.73,223.74,1522Z"/><path class="cls-2" d="M240,1882.86c11.35-5.43,16.75,7.06,23.95,13.31,4.88,4.24,12.88,4.28,16.82,7.26,3.11,1.5,9.55,15.62,9.55,15.62s-9.68,1.55-13.69-.06c-5.55-3.18-11.42-6.17-14-4.07-.24,5.58,3.94,9,6.55,11.68,4.25,6.61,4.28,22.94,4.28,22.94s-14.72-11.56-16.32-15c-2.8-6.23-4.22-13.17-7.19-13-3.63.18-5.24,6.06-4.61,12.23-.53,6-7,15.22-7,15.22s-7.87-13.8-7.91-19.54c1.63-7.75,6.5-18.19,3.6-24.19C227.2,1891.14,234.22,1885.63,240,1882.86Z"/><path class="cls-2" d="M420.43,2121.54c9.57-8.19,18,2.49,26.57,6.68,5.81,2.84,13.55.81,18.12,2.68,3.4.65,13.26,12.63,13.26,12.63s-9,4-13.24,3.47c-6.19-1.64-12.63-3-14.58-.32,1.21,5.45,6.12,7.68,9.34,9.6,5.81,5.29,10.05,21,10.05,21s-17.21-7.37-19.64-10.26c-4.31-5.3-7.46-11.64-10.29-10.73-3.47,1.11-3.51,7.2-1.31,13,1,5.92-2.86,16.52-2.86,16.52s-11.16-11.31-12.68-16.85c-.42-7.91,1.59-19.25-2.75-24.3C410.2,2132.83,415.56,2125.7,420.43,2121.54Z"/><text class="cls-1"/><path class="cls-2" d="M931.57,4688.88c-8.74-8.6-18.11.76-27,4-6,2.17-13.53-.44-18.24.92-3.43.32-14.33,10.79-14.33,10.79s8.51,4.58,12.82,4.47c6.29-1,12.81-1.74,14.49,1-1.7,5-6.79,6.73-10.16,8.26-6.26,4.5-11.94,19.06-11.94,19.06s17.77-5.46,20.45-8c4.77-4.64,8.49-10.36,11.22-9.25,3.33,1.36,2.81,7.14.08,12.44-1.57,5.51,1.3,15.9,1.3,15.9s12.13-9.71,14.16-14.83c1.15-7.45.21-18.38,5-22.77C940.66,4700.49,936,4693.25,931.57,4688.88Z"/><path class="cls-2" d="M803.37,4949.79c-13.25,2.77-10,15.41-12.17,24.44-1.5,6.13-8.38,11-9.87,15.6-1.72,3,1.73,17.5,1.73,17.5s9.32-4.68,11.75-8.3c2.76-5.74,5.91-11.53,9.47-11.5,3.76,4,2.34,9.13,1.8,12.72.55,7.53,10.92,19.82,10.92,19.82s5.33-17.56,4.53-21.1c-1.56-6.37-4.76-12.44-2.1-14.11,3.24-2.06,8.38,1.38,11.77,6.4,4.26,4.18,15.74,7.2,15.74,7.2s-2-15.11-5.63-19.45c-6.35-4.83-17.19-9.74-18.52-16C819.67,4948.3,810.11,4948.39,803.37,4949.79Z"/><path class="cls-2" d="M912.24,5217.77c-13.93,4-8.56,17.21-9.67,27-.75,6.66-7.49,12.36-8.45,17.4-1.43,3.35,4.35,18.56,4.35,18.56s9.41-5.7,11.52-9.75c2.17-6.34,4.75-12.76,8.6-13,4.63,4,3.82,9.58,3.75,13.45,1.67,8,14.61,20.34,14.61,20.34s3.26-19.16,1.89-22.88c-2.58-6.69-6.9-12.92-4.27-14.91,3.21-2.44,9.25.84,13.62,5.95,5.2,4.14,18,6.5,18,6.5s-4.32-16-8.86-20.35c-7.54-4.69-20-9.11-22.27-15.69C929.63,5214.94,919.32,5215.76,912.24,5217.77Z"/><path class="cls-2" d="M1036.28,5548.69c-12.91,3.66-7.94,15.94-9,25-.7,6.18-6.94,11.46-7.83,16.13-1.33,3.1,4,17.2,4,17.2s8.72-5.28,10.68-9c2-5.87,4.39-11.82,8-12.05,4.3,3.74,3.55,8.88,3.48,12.47,1.54,7.41,13.54,18.85,13.54,18.85s3-17.76,1.75-21.2c-2.4-6.2-6.4-12-4-13.82,3-2.26,8.57.78,12.62,5.51,4.82,3.83,16.71,6,16.71,6s-4-14.81-8.2-18.86c-7-4.34-18.49-8.44-20.64-14.53C1052.39,5546.06,1042.84,5546.82,1036.28,5548.69Z"/><path class="cls-2" d="M1015,4500.9c9.75,7.91.39,17.63-2.43,26.48-1.92,6,1.36,13.1.23,17.77-.11,3.35-10.55,14.63-10.55,14.63s-5.44-8-5.61-12.15c.65-6.17,1-12.55-2-14-5.28,2-6.72,7-8.13,10.41-4.38,6.38-19.52,12.86-19.52,12.86s4.63-17.61,7.15-20.38c4.62-5,10.47-8.94,9.1-11.51-1.67-3.15-7.79-2.25-13.26.75-5.77,1.89-17-.21-17-.21s9.55-12.42,14.87-14.73c7.86-1.61,19.57-1.43,23.94-6.37C1002,4492.84,1010,4496.87,1015,4500.9Z"/><path class="cls-2" d="M715.86,4778.34c12.29,4.85,6.06,17.46,6.08,27.17,0,6.58,5.58,12.64,5.94,17.65,1,3.38-5.83,17.89-5.83,17.89s-8-6.25-9.52-10.37c-1.33-6.36-3-12.84-6.52-13.35-4.63,3.63-4.45,9.12-4.78,12.93-2.32,7.72-15.37,18.91-15.37,18.91s-1-19,.59-22.56c3-6.37,7.59-12.18,5.4-14.32-2.68-2.61-8.52.18-13,4.88-5.16,3.69-17.09,5.11-17.09,5.11s5.55-15.38,10.12-19.33c7.34-4.06,19.1-7.53,21.88-13.82C700.29,4774.34,709.61,4775.87,715.86,4778.34Z"/><path class="cls-2" d="M751.85,5117.09c13.29-.07,14,13.22,18.75,21.73,3.25,5.79,11.17,9.15,13.95,13.42,2.52,2.63,3.61,17.79,3.61,17.79s-10.17-2.67-13.54-5.76c-4.31-5.12-9-10.21-12.34-9.43-2.34,4.83.52,9.59,2.1,13.05,1.74,7.61-4.34,22-4.34,22s-10.27-16.35-10.57-20c-.44-6.67.75-13.39-2.24-14.49-3.67-1.35-7.47,3.16-9.16,8.88-2.77,5.06-12.66,10.52-12.66,10.52s-2.63-15.47-.52-20.56c4.53-6.16,13.26-13.36,12.64-19.86C736.07,5119.07,745.09,5117.13,751.85,5117.09Z"/><path class="cls-2" d="M855.63,5403.66c14.09-5.81,20.53,8,29.29,15,5.94,4.74,15.8,4.9,20.6,8.23,3.81,1.71,11.51,17.33,11.51,17.33s-11.95,1.56-16.87-.27c-6.78-3.58-14-7-17.18-4.69-.39,6.13,4.7,10,7.87,12.95,5.13,7.33,4.89,25.29,4.89,25.29s-18-12.93-19.86-16.72c-3.35-6.9-5-14.54-8.64-14.43-4.47.15-6.56,6.59-5.89,13.39-.75,6.57-8.91,16.63-8.91,16.63s-9.46-15.29-9.42-21.61c2.15-8.5,8.32-19.91,4.85-26.55C839.72,5412.57,848.46,5406.61,855.63,5403.66Z"/><text class="cls-1"/><path class="cls-2" d="M1771.53,3468.93c11.86.29,11.06,12.9,14.42,21.11,2.29,5.57,9,9,11,13.1,2,2.56,1.34,17,1.34,17s-8.78-2.8-11.46-5.82c-3.3-5-6.95-9.93-10-9.27-2.59,4.51-.54,9.11.5,12.43.75,7.26-6.2,20.8-6.2,20.8s-7.42-15.78-7.3-19.29c.31-6.34,2.08-12.68-.47-13.8-3.13-1.38-7,2.8-9.1,8.18-3,4.73-12.4,9.64-12.4,9.64s-.71-14.74,1.71-19.51c4.69-5.73,13.23-12.32,13.36-18.51C1757.26,3470.4,1765.5,3468.79,1771.53,3468.93Z"/><path class="cls-2" d="M1716.11,3753.19c11.61,4.6,6.1,16.77,6.35,26.09.18,6.34,5.53,12.14,6,16.95,1,3.24-5,17.24-5,17.24s-7.62-6-9.14-9.92c-1.41-6.11-3.16-12.32-6.42-12.79-4.24,3.52-3.94,8.8-4.15,12.46-2,7.44-13.9,18.28-13.9,18.28s-1.43-18.27,0-21.7c2.67-6.15,6.79-11.76,4.69-13.8-2.57-2.5-8,.22-12,4.77-4.73,3.58-15.85,5-15.85,5s4.81-14.81,9-18.65c6.77-4,17.67-7.36,20.11-13.42C1701.47,3749.45,1710.21,3750.86,1716.11,3753.19Z"/><path class="cls-2" d="M1547.86,4025.51c9.88,7.56,1.2,17.77-1.15,26.82-1.6,6.13,1.94,13.16,1,17.91,0,3.39-9.61,15.22-9.61,15.22s-5.68-7.79-6-12c.35-6.25.39-12.71-2.62-14-5.06,2.24-6.23,7.4-7.45,10.86-4,6.62-18.45,13.82-18.45,13.82s3.7-18,6-20.87c4.28-5.19,9.8-9.47,8.35-12-1.78-3.1-7.71-1.93-12.91,1.34-5.54,2.16-16.63.53-16.63.53s8.74-12.95,13.82-15.51c7.61-2,19-2.29,23.07-7.46C1534.81,4018,1542.83,4021.67,1547.86,4025.51Z"/><path class="cls-2" d="M1272,4285.06c6.55,10.51-5.22,17-10.64,24.7-3.68,5.19-2.88,13-5.41,17.13-1.16,3.19-14.43,10.91-14.43,10.91s-2.54-9.27-1.37-13.34c2.56-5.73,4.9-11.76,2.56-14.05-5.53.34-8.47,4.76-10.85,7.58-6.08,4.82-22.2,6.53-22.2,6.53s9.87-15.53,13.09-17.44c5.86-3.37,12.56-5.46,12.1-8.34-.56-3.52-6.53-4.49-12.56-3.24-6,.1-15.76-5.27-15.76-5.27s12.81-9.08,18.47-9.71c7.82.79,18.64,4.45,24.26,1C1262.53,4273.45,1268.71,4279.72,1272,4285.06Z"/><path class="cls-2" d="M1837.36,3634.11c-12-1.46-13.1,11.38-17.73,19.16-3.15,5.29-10.42,7.73-13.09,11.59-2.38,2.29-3.92,16.91-3.92,16.91s9.28-1.53,12.44-4.18c4.08-4.52,8.51-9,11.49-7.87,1.93,4.93-.83,9.27-2.38,12.46-1.85,7.22,3.11,21.89,3.11,21.89s9.87-14.82,10.28-18.37c.64-6.45-.19-13.1,2.56-13.86,3.36-.93,6.63,3.86,7.94,9.59,2.31,5.22,11,11.55,11,11.55s3-14.76,1.23-19.93c-3.86-6.46-11.48-14.37-10.68-20.63C1851.54,3637.68,1843.47,3634.85,1837.36,3634.11Z"/><path class="cls-2" d="M1865.21,3349.67c-12,1.37-10,14.11-12.64,22.75-1.79,5.86-8.27,9.93-9.94,14.3-1.76,2.78.24,17.35.24,17.35s8.65-3.65,11.09-7c2.88-5.34,6.11-10.7,9.28-10.32,3,4.35,1.41,9.2.67,12.67-.07,7.44,8.26,20.54,8.26,20.54s6-16.69,5.59-20.24c-.91-6.41-3.31-12.68-.83-14.06,3-1.68,7.37,2.21,10,7.48,3.49,4.53,13.5,8.66,13.5,8.66s-.68-15-3.59-19.66c-5.29-5.38-14.59-11.3-15.31-17.57C1879.85,3349.86,1871.32,3349,1865.21,3349.67Z"/><path class="cls-2" d="M1725.39,3940.62c-9.46-9.3-19.25,1.16-28.63,4.84-6.38,2.49-14.4-.24-19.38,1.33-3.64.41-15,12.12-15,12.12s9.14,4.87,13.72,4.68c6.66-1.22,13.59-2.14,15.43.83-1.72,5.59-7.1,7.52-10.65,9.26-6.57,5.05-12.34,21.15-12.34,21.15s18.79-6.3,21.59-9.13c5-5.18,8.84-11.53,11.76-10.36,3.57,1.44,3.12,7.8.32,13.68-1.57,6.08,1.68,17.45,1.68,17.45s12.72-10.9,14.77-16.55c1.09-8.21-.11-20.2,4.89-25.12C1735.28,3953.22,1730.19,3945.35,1725.39,3940.62Z"/><path class="cls-2" d="M1473.12,4207.33c-9.45-9.3-19.24,1.15-28.63,4.83-6.37,2.5-14.39-.24-19.37,1.34-3.65.41-15,12.12-15,12.12s9.14,4.87,13.71,4.68c6.67-1.22,13.59-2.14,15.43.83-1.71,5.58-7.09,7.51-10.65,9.26-6.57,5-12.33,21.15-12.33,21.15s18.78-6.31,21.58-9.13c5-5.18,8.84-11.53,11.76-10.36,3.57,1.44,3.12,7.8.32,13.67-1.57,6.09,1.69,17.46,1.69,17.46s12.71-10.9,14.77-16.55c1.08-8.22-.12-20.2,4.88-25.12C1483,4219.93,1477.93,4212.06,1473.12,4207.33Z"/><path class="cls-2" d="M1201.38,4466.25c-9.21-8.76-18.74,1.09-27.89,4.56-6.2,2.35-14-.23-18.86,1.26-3.55.38-14.65,11.41-14.65,11.41s8.9,4.6,13.35,4.41c6.5-1.14,13.24-2,15,.79-1.67,5.26-6.91,7.08-10.37,8.72-6.4,4.76-12,19.93-12,19.93s18.29-5.94,21-8.6c4.86-4.88,8.61-10.87,11.45-9.76,3.48,1.36,3,7.34.32,12.88-1.53,5.74,1.63,16.45,1.63,16.45s12.39-10.27,14.39-15.6c1.06-7.73-.11-19,4.76-23.67C1211,4478.13,1206.06,4470.71,1201.38,4466.25Z"/><text class="cls-1"/><path class="cls-2" d="M1047.31,2542.5c3.71-10.88,15.69-6.55,24.6-7.32,6.06-.53,11.29-5.76,15.87-6.46,3-1.09,16.8,3.59,16.8,3.59s-5.25,7.32-8.95,8.94c-5.77,1.64-11.62,3.6-11.87,6.62,3.62,3.67,8.66,3.09,12.17,3.07,7.25,1.38,18.33,11.66,18.33,11.66s-17.42,2.37-20.78,1.26c-6-2.09-11.66-5.54-13.49-3.5-2.24,2.5.69,7.27,5.28,10.75,3.71,4.12,5.74,14.2,5.74,14.2s-14.47-3.54-18.39-7.13c-4.18-6-8.09-15.74-14-17.62C1044.59,2556.12,1045.42,2548,1047.31,2542.5Z"/><path class="cls-2" d="M709.42,2399.53c3.71-10.88,15.68-6.55,24.6-7.32,6.05-.53,11.29-5.76,15.87-6.46,3-1.09,16.8,3.59,16.8,3.59s-5.26,7.32-9,8.94c-5.76,1.64-11.61,3.6-11.86,6.62,3.62,3.67,8.65,3.09,12.17,3.07,7.24,1.38,18.32,11.66,18.32,11.66s-17.41,2.37-20.77,1.26c-6.05-2.09-11.66-5.54-13.5-3.5-2.24,2.5.69,7.27,5.29,10.75,3.7,4.12,5.73,14.2,5.73,14.2s-14.47-3.54-18.38-7.13c-4.19-6-8.09-15.74-14-17.62C706.7,2413.15,707.53,2405.07,709.42,2399.53Z"/><path class="cls-2" d="M1315.45,2695.07c8.13-9.16,18-.27,27,2.45,6.11,1.84,13.39-1.22,18.14-.12,3.42.13,14.88,10,14.88,10s-8.16,5.09-12.43,5.22c-6.3-.65-12.82-1-14.31,1.82,2,5,7.14,6.39,10.58,7.74,6.48,4.17,13,18.5,13,18.5s-17.95-4.48-20.77-6.87c-5-4.39-9.06-9.93-11.7-8.66-3.22,1.56-2.34,7.34.69,12.53,1.9,5.45-.31,16.07-.31,16.07s-12.63-9.08-15-14.11c-1.6-7.44-1.35-18.49-6.36-22.64C1307.14,2707.27,1311.31,2699.72,1315.45,2695.07Z"/><path class="cls-2" d="M1645.76,2949c10.9-5.88,17,5.76,24.49,11.31,5.09,3.78,13,3.33,17.07,6,3.18,1.26,10.41,14.39,10.41,14.39s-9.47,2.06-13.53.76c-5.69-2.71-11.67-5.23-14.09-3.06.11,5.35,4.45,8.38,7.19,10.79,4.61,6.08,5.65,21.71,5.65,21.71s-15.27-10.19-17.06-13.37c-3.15-5.8-5-12.36-7.9-12-3.58.4-4.81,6.12-3.81,12-.15,5.76-6,15-6,15s-8.63-12.74-9-18.24c1.14-7.51,5.3-17.8,2.07-23.37C1633.63,2957.7,1640.23,2952,1645.76,2949Z"/><path class="cls-2" d="M1775.48,3184.74c12.3-2,14,11,19.14,18.62,3.49,5.21,11.09,7.36,14,11.16,2.55,2.21,4.81,16.94,4.81,16.94s-9.63-1.15-13-3.69c-4.41-4.41-9.18-8.72-12.2-7.47-1.76,5.08,1.28,9.34,3,12.51,2.24,7.22-2.2,22.28-2.2,22.28s-10.85-14.56-11.43-18.14c-1-6.49-.41-13.26-3.27-13.91-3.51-.8-6.65,4.19-7.75,10.05-2.14,5.37-10.85,12.17-10.85,12.17s-3.71-14.81-2.17-20.12c3.68-6.71,11.17-15,10.06-21.34C1761,3189,1769.22,3185.75,1775.48,3184.74Z"/><path class="cls-2" d="M933.61,2414.26c-4.87,10.69,7.25,15.34,13.45,21.83,4.2,4.4,4.48,11.82,7.44,15.39,1.54,2.84,15.25,8.4,15.25,8.4s1.19-9-.47-12.69c-3.21-5.05-6.25-10.41-4.31-12.86,5.33-.39,8.73,3.39,11.38,5.73,6.45,3.75,22.08,3.31,22.08,3.31s-11.5-13.32-14.83-14.7c-6.05-2.42-12.73-3.53-12.67-6.29.06-3.38,5.64-5,11.57-4.64,5.71-.66,14.36-6.95,14.36-6.95s-13.45-6.9-19-6.77c-7.36,1.74-17.21,6.56-23,4.05C941.15,2402.16,936.08,2408.82,933.61,2414.26Z"/><path class="cls-2" d="M614.66,2256.34c-4.87,10.69,7.25,15.34,13.45,21.83,4.21,4.4,4.48,11.82,7.45,15.38,1.53,2.85,15.24,8.41,15.24,8.41s1.19-9-.47-12.69c-3.2-5.06-6.25-10.41-4.31-12.86,5.33-.39,8.73,3.39,11.38,5.73,6.45,3.75,22.08,3.31,22.08,3.31s-11.5-13.32-14.83-14.71c-6-2.42-12.72-3.53-12.67-6.28.07-3.38,5.64-5,11.57-4.64,5.71-.66,14.36-7,14.36-7s-13.44-6.9-18.94-6.77c-7.37,1.74-17.22,6.55-23.05,4C622.2,2244.24,617.13,2250.9,614.66,2256.34Z"/><path class="cls-2" d="M1249.7,2535.16c-6.25,10.63,5.86,16.73,11.61,24.13,3.9,5,3.36,12.79,6.06,16.81,1.29,3.12,15,10.34,15,10.34s2.23-9.28.91-13.28c-2.78-5.6-5.36-11.49-3.08-13.85,5.6.15,8.73,4.44,11.23,7.15,6.31,4.58,22.64,5.74,22.64,5.74s-10.51-15.07-13.82-16.86c-6-3.15-12.88-5-12.52-7.86.44-3.51,6.44-4.67,12.57-3.63,6-.1,15.73-5.76,15.73-5.76s-13.25-8.58-19-9c-7.87,1.05-18.66,5-24.46,1.82C1258.9,2523.33,1252.88,2529.75,1249.7,2535.16Z"/><path class="cls-2" d="M1573.07,2785.08c-9.87,8.82.14,18.67,3.35,27.89,2.17,6.26-1,13.93.31,18.81.22,3.54,11.4,15,11.4,15s5.4-8.68,5.44-13.12c-.87-6.5-1.43-13.23,1.66-14.91,5.54,1.86,7.19,7.14,8.76,10.64,4.74,6.54,20.64,12.7,20.64,12.7s-5.35-18.42-8-21.23c-4.95-5-11.14-9-9.81-11.75,1.64-3.41,8-2.75,13.79.17,6,1.73,17.66-1,17.66-1s-10.29-12.69-15.88-14.88c-8.21-1.34-20.34-.61-25-5.62C1586.29,2775.94,1578.09,2780.59,1573.07,2785.08Z"/><path class="cls-2" d="M1811.76,2998.57c-13,2.76-9.49,16.21-11.49,25.76-1.35,6.48-8,11.54-9.41,16.41-1.64,3.17,2.07,18.58,2.07,18.58s9.1-4.84,11.42-8.65c2.61-6,5.59-12.14,9.1-12.07,3.8,4.34,2.51,9.72,2,13.52.7,8,11.19,21.15,11.19,21.15s4.89-18.55,4-22.31c-1.67-6.78-5-13.25-2.37-15,3.16-2.14,8.3,1.58,11.75,6.94,4.29,4.49,15.69,7.85,15.69,7.85s-2.31-16.06-6-20.71c-6.37-5.21-17.17-10.56-18.61-17.2C1827.81,2997.2,1818.38,2997.17,1811.76,2998.57Z"/><text/><path class="cls-2" d="M1583.11,290.58c10.07-4.86,14.91,6.22,21.31,11.75,4.35,3.76,11.46,3.77,15,6.4,2.77,1.33,8.53,13.86,8.53,13.86s-8.59,1.4-12.16,0c-4.94-2.8-10.16-5.45-12.44-3.57-.2,4.95,3.52,8,5.84,10.36,3.8,5.86,3.87,20.36,3.87,20.36s-13.11-10.23-14.54-13.26c-2.51-5.53-3.78-11.69-6.42-11.55-3.23.18-4.64,5.4-4.07,10.88-.45,5.32-6.19,13.54-6.19,13.54s-7-12.23-7.08-17.34c1.43-6.88,5.72-16.17,3.13-21.49C1571.77,298,1578,293.05,1583.11,290.58Z"/><path class="cls-2" d="M1415,43.18c10.08-4.86,14.91,6.22,21.32,11.75,4.34,3.76,11.46,3.76,15,6.4,2.77,1.33,8.53,13.86,8.53,13.86s-8.6,1.4-12.16,0c-4.94-2.81-10.16-5.45-12.45-3.58-.2,5,3.52,8,5.85,10.36,3.79,5.86,3.87,20.37,3.87,20.37s-13.11-10.23-14.54-13.27c-2.51-5.53-3.79-11.68-6.43-11.54-3.22.17-4.64,5.39-4.06,10.88-.45,5.31-6.2,13.54-6.2,13.54s-7-12.24-7.08-17.34c1.44-6.89,5.73-16.18,3.14-21.5C1403.62,50.57,1409.84,45.65,1415,43.18Z"/><path class="cls-2" d="M1645.38,523.29c10.95,4.4,5.75,16,6,25,.17,6.06,5.21,11.6,5.65,16.2.93,3.1-4.73,16.49-4.73,16.49s-7.2-5.7-8.63-9.48c-1.32-5.85-3-11.79-6.05-12.24-4,3.37-3.72,8.42-3.92,11.92-1.87,7.11-13.11,17.48-13.11,17.48s-1.35-17.48,0-20.75c2.52-5.88,6.41-11.25,4.43-13.2-2.43-2.39-7.5.21-11.36,4.56-4.46,3.42-15,4.8-15,4.8s4.54-14.17,8.47-17.84c6.38-3.77,16.67-7,19-12.83C1631.57,519.71,1639.82,521.06,1645.38,523.29Z"/><path class="cls-2" d="M1527.26,779.77c9.32,7.23,1.13,17-1.08,25.64-1.51,5.86,1.82,12.58,1,17.12,0,3.24-9.07,14.56-9.07,14.56s-5.35-7.45-5.69-11.49c.33-6,.37-12.15-2.47-13.42-4.77,2.14-5.88,7.07-7,10.38-3.75,6.33-17.4,13.22-17.4,13.22s3.49-17.18,5.68-20c4-5,9.25-9.05,7.88-11.48-1.67-3-7.27-1.84-12.17,1.28-5.23,2.07-15.69.51-15.69.51s8.25-12.38,13-14.83c7.17-1.88,18-2.19,21.76-7.13C1515,772.54,1522.52,776.1,1527.26,779.77Z"/><path class="cls-3" d="M1274,989.79c7.78,8.87-2.12,16.9-5.94,25-2.59,5.47-.6,12.7-2.3,17-.57,3.19-11.67,12.56-11.67,12.56s-3.84-8.33-3.41-12.35c1.47-5.81,2.68-11.86.14-13.65-5.09,1.19-7.12,5.82-8.88,8.85-4.89,5.5-19.6,9.66-19.6,9.66s6.7-16.2,9.38-18.51c4.91-4.1,10.81-7.12,9.92-9.77-1.08-3.22-6.78-3.19-12.19-1.06-5.53,1-15.5-2.49-15.5-2.49s10.45-10.58,15.62-12.07c7.4-.48,18,1.26,22.72-2.86C1263.25,980.35,1270,985.28,1274,989.79Z"/><path class="cls-2" d="M1557.29,126.21c-10.7,4-6,15.34-6.47,24-.32,5.85-5.35,11.07-5.9,15.51-1,3,4.13,16.06,4.13,16.06s7.11-5.31,8.6-8.92c1.43-5.62,3.19-11.32,6.18-11.67,3.78,3.37,3.37,8.24,3.46,11.63,1.62,6.93,12.2,17.25,12.2,17.25s1.78-16.85.57-20.05c-2.28-5.76-5.89-11.05-3.92-12.89,2.41-2.24,7.24.42,10.86,4.73,4.21,3.43,14.31,5,14.31,5s-4-13.82-7.7-17.47c-6.07-3.83-15.92-7.26-18-12.92C1570.74,123.12,1562.73,124.2,1557.29,126.21Z"/><path class="cls-2" d="M1700.09,381.26c-11.57,3-7.88,15.34-9.3,24.27-1,6.06-6.76,11-7.81,15.53-1.34,3,2.58,17.18,2.58,17.18s8-4.78,9.92-8.39c2.1-5.69,4.54-11.45,7.69-11.49,3.58,3.91,2.63,8.94,2.36,12.48.94,7.4,10.87,19.29,10.87,19.29s3.66-17.38,2.74-20.84c-1.77-6.24-5-12.14-2.71-13.84,2.75-2.08,7.5,1.2,10.81,6.08,4,4,14.38,6.78,14.38,6.78s-2.69-14.83-6.16-19c-5.91-4.63-15.81-9.26-17.37-15.38C1714.44,379.48,1706,379.75,1700.09,381.26Z"/><path class="cls-2" d="M1684.34,721.53c-8.92-8.89-18.15,1.1-27,4.62-6,2.39-13.57-.23-18.27,1.28-3.44.39-14.19,11.58-14.19,11.58s8.62,4.66,12.94,4.48c6.29-1.16,12.82-2,14.55.79-1.62,5.34-6.69,7.19-10,8.86-6.2,4.83-11.64,20.22-11.64,20.22s17.72-6,20.37-8.73c4.7-5,8.33-11,11.09-9.9,3.36,1.37,2.94,7.45.3,13.07-1.48,5.82,1.59,16.68,1.59,16.68s12-10.41,13.93-15.82c1-7.85-.11-19.31,4.61-24C1693.67,733.58,1688.87,726.05,1684.34,721.53Z"/><path class="cls-3" d="M1481,951.43c-8.92-8.89-18.15,1.1-27,4.62-6,2.39-13.58-.23-18.28,1.28-3.43.39-14.18,11.58-14.18,11.58s8.62,4.66,12.93,4.48c6.29-1.16,12.82-2,14.56.79-1.62,5.34-6.7,7.19-10,8.86-6.2,4.83-11.64,20.22-11.64,20.22s17.72-6,20.37-8.73c4.71-4.95,8.34-11,11.09-9.9,3.37,1.37,2.94,7.45.3,13.07-1.48,5.82,1.59,16.68,1.59,16.68s12-10.41,13.93-15.82c1-7.85-.11-19.31,4.61-24C1490.35,963.48,1485.56,956,1481,951.43Z"/></g></svg>