<svg xmlns="http://www.w3.org/2000/svg" viewBox="0 0 220.49 265.06"><defs><style>.cls-1{fill:#f69277;}</style></defs><g id="footprints"><path class="cls-1" d="M143.79,264c-44.74,8.81-52.4-39.86-72-68.27-13.29-19.29-41.33-26.64-52.43-40.63C9.83,147,0,91.69,0,91.69S35.33,95,47.94,104.26c16.59,16.15,34.47,32,45.4,26.9,5.89-19.33-5.67-35.1-12.4-46.87C72,57.28,86.62,0,86.62,0s41.19,53.81,43.72,67.26c4.2,24.39,2.9,50,13.45,52.13,12.9,2.64,23.86-16.5,27.22-38.73,7.25-20.49,38.36-47,38.36-47s15.14,55.49,10.09,75.67C206.74,135,180.26,167.21,185,190.86,196.12,246.52,166.54,259.53,143.79,264Z"/></g></svg>