<svg xmlns="http://www.w3.org/2000/svg" viewBox="0 0 364.28 1049.75"><defs><style>.cls-1{fill:#f69277;opacity:0.8;}</style></defs><g id="portrait"><path class="cls-1" d="M201.6,535c11.58,2.55,8.38,14.78,10.12,23.48,1.18,5.91,7.11,10.52,8.31,15,1.45,2.89-1.92,16.91-1.92,16.91S210,586,208,582.49c-2.29-5.51-4.93-11.07-8.06-11-3.4,3.94-2.27,8.84-1.88,12.3C197.37,591.05,188,603,188,603s-4.27-16.9-3.48-20.33c1.51-6.16,4.47-12,2.17-13.64-2.8-1.95-7.39,1.42-10.49,6.3-3.85,4.07-14,7.09-14,7.09s2.12-14.6,5.41-18.83c5.68-4.72,15.33-9.56,16.64-15.61C187.31,533.75,195.71,533.75,201.6,535Z"/><path class="cls-1" d="M92.9,803.48c10.51,6.73,2.78,17.62,1.24,26.83-1,6.25,3.11,13,2.64,17.77.35,3.38-8.21,16-8.21,16s-6.35-7.31-7.09-11.48c-.21-6.27-.74-12.71-3.85-13.79-4.84,2.65-5.55,7.89-6.46,11.44C67.81,857.15,54,865.51,54,865.51s2.08-18.21,4.14-21.3c3.8-5.53,8.92-10.25,7.24-12.66-2-2.94-7.84-1.29-12.73,2.39-5.32,2.61-16.51,1.89-16.51,1.89s7.55-13.62,12.38-16.59c7.39-2.58,18.74-3.85,22.3-9.33C79.24,797,87.55,800.06,92.9,803.48Z"/><path class="cls-1" d="M234.66,709.75c-11.5-3.72-15,8.68-21.07,15.43-4.1,4.58-11.7,5.59-15.06,8.87-2.77,1.8-7.08,15.85-7.08,15.85s9.4.28,13-1.72c4.87-3.67,10.07-7.2,12.79-5.54.95,5.22-2.59,8.94-4.73,11.78-3.19,6.73-1.12,22.08-1.12,22.08s12.51-12.66,13.6-16.07c1.86-6.2,2.32-12.89,5.16-13.11,3.48-.27,5.77,5,6,10.93,1.27,5.56,8.63,13.45,8.63,13.45s5.71-13.93,5-19.34c-2.55-7.08-8.51-16.3-6.53-22.29C247.89,716,240.51,711.64,234.66,709.75Z"/><path class="cls-1" d="M316.34,435.88c-12.06-.95-12.52,11.93-16.76,19.91-2.88,5.41-10,8.17-12.49,12.14C284.83,470.32,284,485,284,485s9.19-1.92,12.21-4.71c3.85-4.7,8-9.34,11.09-8.36,2.16,4.86-.37,9.3-1.77,12.56-1.48,7.3,4.19,21.75,4.19,21.75s9.12-15.23,9.35-18.8c.33-6.47-.83-13.08,1.88-14,3.31-1.07,6.8,3.57,8.4,9.25,2.56,5.12,11.59,11.08,11.59,11.08s2.21-14.88.24-20C337,467.53,329,460,329.51,453.66,330.66,438.85,322.46,436.36,316.34,435.88Z"/><path class="cls-1" d="M66.19,989.23c-7.5-10.93-19.1-2.54-29-.72-6.73,1.23-14.08-3-19.27-2.39-3.66-.3-17.08,9-17.08,9s8,6.53,12.57,7.21c6.77.08,13.74.5,15,3.76-2.75,5.16-8.4,6-12.22,7.06C8.74,1016.88,0,1031.58,0,1031.58s19.64-2.6,22.94-4.84c5.89-4.13,10.88-9.63,13.52-7.92,3.22,2.09,1.57,8.24-2.3,13.48-2.7,5.67-1.68,17.45-1.68,17.45s14.56-8.26,17.66-13.42c2.63-7.85,3.74-19.85,9.59-23.72C73.5,1003.49,70,994.79,66.19,989.23Z"/><path class="cls-1" d="M177.46.67c11.82-3.7,15.59,8.89,21.88,15.78,4.27,4.67,12.13,5.74,15.62,9.09,2.88,1.84,7.46,16.12,7.46,16.12s-9.68.21-13.42-1.84c-5.06-3.75-10.45-7.36-13.24-5.7-.92,5.28,2.76,9.08,5,12,3.36,6.84,1.4,22.38,1.4,22.38s-13-12.91-14.19-16.38c-2-6.29-2.53-13.08-5.46-13.32-3.59-.3-5.89,5.08-6,11-1.25,5.62-8.75,13.57-8.75,13.57s-6-14.16-5.37-19.63c2.55-7.16,8.6-16.46,6.5-22.55C163.89,6.88,171.46,2.54,177.46.67Z"/><path class="cls-1" d="M259.76,256.84c12.45.38,11.66,13.42,15.23,21.93,2.43,5.78,9.48,9.35,11.63,13.63,2.08,2.66,1.48,17.55,1.48,17.55s-9.23-3-12.06-6.11c-3.49-5.16-7.34-10.31-10.55-9.66-2.7,4.65-.53,9.41.58,12.86.81,7.51-6.42,21.45-6.42,21.45s-7.86-16.37-7.75-20c.29-6.55,2.13-13.09-.56-14.27-3.29-1.45-7.33,2.84-9.52,8.39-3.13,4.86-13,9.87-13,9.87s-.81-15.25,1.72-20.17c4.89-5.88,13.83-12.63,13.94-19C244.77,258.24,253.42,256.64,259.76,256.84Z"/><path class="cls-1" d="M330.93,81c-13.3.22-12.41,14.09-16.19,23.09-2.57,6.1-10.09,9.79-12.37,14.31-2.22,2.8-1.52,18.63-1.52,18.63s9.85-3,12.86-6.3c3.71-5.44,7.81-10.86,11.24-10.11,2.9,5,.6,10-.57,13.66-.84,8,6.94,22.9,6.94,22.9s8.34-17.28,8.21-21.14c-.34-7-2.33-13.95.54-15.17,3.51-1.49,7.84,3.14,10.2,9.07,3.36,5.22,13.9,10.69,13.9,10.69s.81-16.2-1.9-21.46c-5.25-6.33-14.83-13.64-15-20.44C347,82.75,337.7,80.92,330.93,81Z"/></g></svg>