<svg xmlns="http://www.w3.org/2000/svg" viewBox="0 0 1923.5 1874.24"><defs><style>.cls-1{fill:#f69277;opacity:0.65;}</style></defs><g id="portrait"><path class="cls-1" d="M1711.57,341.81c-20.12-12-32.24,10.22-46.62,20.58-9.77,7-24.6,5.75-32.39,10.6-6,2.26-20.35,27.33-20.35,27.33s17.67,4.5,25.37,2.21c10.82-4.95,22.2-9.5,26.62-5.17-.5,10.37-8.82,16-14.11,20.53-9,11.53-11.83,41.77-11.83,41.77s29.24-18.92,32.79-25c6.25-11.07,10-23.67,15.52-22.89,6.7,1,8.69,12.1,6.47,23.44,0,11.17,10.43,29.39,10.43,29.39s16.92-24.23,18-34.87c-1.72-14.63-9-34.8-2.58-45.42C1733.87,359.31,1721.81,347.91,1711.57,341.81Z"/><path class="cls-1" d="M1538.76,815.77c-23.64,7.15-15,32.37-17.1,50.94-1.46,12.6-13,23.23-14.76,32.75-2.52,6.3,6.83,35.26,6.83,35.26s16.06-10.56,19.74-18.19c3.84-11.94,8.38-24,14.89-24.4,7.72,7.76,6.2,18.24,6,25.57,2.58,15.19,24.12,38.89,24.12,38.89s6-36.21,3.83-43.28c-4.18-12.74-11.3-24.65-6.8-28.36,5.5-4.53,15.6,1.84,22.86,11.62,8.67,8,30.29,12.75,30.29,12.75s-6.85-30.39-14.39-38.76c-12.61-9-33.46-17.75-37.2-30.26C1568.23,810.85,1550.78,812.14,1538.76,815.77Z"/><path class="cls-1" d="M1737.87,1372.57c-20.77,13.36-5.49,35.23-2.46,53.67,2,12.52-6.14,25.91-5.21,35.54-.7,6.75,16.23,32,16.23,32s12.55-14.56,14-22.9c.41-12.54,1.46-25.42,7.62-27.55,9.56,5.34,11,15.83,12.76,23,6.65,13.9,33.86,30.78,33.86,30.78s-4.12-36.48-8.19-42.67c-7.51-11.1-17.62-20.6-14.31-25.41,4-5.87,15.5-2.51,25.16,4.91,10.53,5.27,32.63,4,32.63,4s-14.92-27.34-24.47-33.32c-14.61-5.25-37-7.89-44.07-18.9C1764.87,1359.75,1748.44,1365.78,1737.87,1372.57Z"/><path class="cls-1" d="M1795.73,3.68c21.59,10.21,9.68,33.1,9.08,51.17-.4,12.26,9.12,24.08,9.45,33.43,1.51,6.39-11.57,32.75-11.57,32.75s-13.85-12.39-16.29-20.21c-2-12-4.58-24.19-10.75-25.46-8.5,6.31-8.54,16.55-9.37,23.61-4.64,14.16-28.62,33.74-28.62,33.74s-.61-35.49,2.51-41.94c5.82-11.58,14.33-22,10.56-26.15-4.62-5.13-15.19-.48-23.52,7.85-9.44,6.37-30.8,7.87-30.8,7.87s10.89-28.09,19.29-35c13.36-6.86,34.54-12.2,39.91-23.64C1768.24-5.23,1784.75-1.51,1795.73,3.68Z"/><path class="cls-1" d="M1450.82,509.4c23.59,8.33,13.62,33.45,14.93,52.34.89,12.82,12.09,24.11,13.42,33.83,2.26,6.49-8.55,35.36-8.55,35.36s-15.76-11.43-19.13-19.32c-3.33-12.26-7.36-24.71-13.93-25.38-8.18,7.49-7.12,18.16-7.23,25.6-3.33,15.25-26.22,38.22-26.22,38.22s-4.43-36.91-1.87-44c4.82-12.69,12.58-24.42,8.2-28.38-5.35-4.85-15.87,1.13-23.67,10.69-9.14,7.66-31.25,11.5-31.25,11.5s8.35-30.43,16.37-38.55c13.18-8.58,34.68-16.41,39-28.9C1421.22,503,1438.83,505.16,1450.82,509.4Z"/><path class="cls-1" d="M1420.94,1222.1c20.25-16.9,37.66,5.66,55.48,14.63,12.1,6.09,28.37,2,37.89,6,7.1,1.44,27.46,26.77,27.46,26.77s-18.84,8.14-27.81,7c-12.91-3.58-26.37-6.62-30.51-1,2.39,11.45,12.64,16.23,19.32,20.33,12,11.22,20.55,44.33,20.55,44.33s-35.85-15.84-40.87-22c-8.91-11.2-15.36-24.54-21.31-22.7-7.28,2.24-7.52,15-3.05,27.2,2,12.41-6.38,34.52-6.38,34.52s-23.1-23.94-26.15-35.58c-.69-16.56,3.79-40.26-5.18-50.94C1399.26,1245.52,1410.65,1230.7,1420.94,1222.1Z"/><path class="cls-1" d="M1802.68,1739.17c20.24-16.9,37.65,5.65,55.48,14.62,12.1,6.09,28.36,2,37.88,6,7.1,1.45,27.46,26.78,27.46,26.78s-18.84,8.13-27.81,7c-12.9-3.59-26.36-6.63-30.5-1,2.39,11.44,12.63,16.23,19.31,20.33,12,11.21,20.55,44.33,20.55,44.33s-35.85-15.85-40.87-22c-8.91-11.2-15.36-24.54-21.31-22.7-7.27,2.25-7.51,15-3,27.21,2,12.41-6.39,34.51-6.39,34.51s-23.1-23.94-26.15-35.57c-.68-16.57,3.79-40.27-5.18-51C1781,1762.58,1792.38,1747.77,1802.68,1739.17Z"/></g></svg>