<svg xmlns="http://www.w3.org/2000/svg" viewBox="0 0 594.83 1261.12"><defs><style>.cls-1{fill:#f6d5b6;}.cls-2{fill:#222;opacity:0.85;}.cls-3{fill:#9bc1bc;}.cls-4{fill:#e9ae8c;}.cls-5{fill:#f69277;}.cls-6{fill:#d4d7cc;opacity:0.45;}</style></defs><g id="fullbody"><circle class="cls-1" cx="447.37" cy="693.08" r="30.25"/><path class="cls-1" d="M278.66,80.14c0,34-28.36,61.61-63.35,61.61S161.68,112.83,152,80.14C141,43.34,167.46,9.65,215.31,18.52,249.68,24.89,278.66,46.11,278.66,80.14Z"/><polygon class="cls-1" points="151.97 80.14 161.4 128.58 225.02 160.82 214.09 120.48 151.97 80.14"/><path class="cls-2" d="M323.13,1261.12h266s12.72-37.9,0-76.46c-20.48-45.22-159.24-75.14-159.24-75.14l13.41-87.77-147.06,27.92Z"/><path class="cls-2" d="M73.14,1261.12H247.36V1073.61l-113-13.3,4,81.13S90.43,1162.71,81.12,1184,65.16,1233.2,73.14,1261.12Z"/><path class="cls-3" d="M142.3,115.22,345.77,223.83,309.86,258.4,515.93,686.29,413.09,703.91,486.73,910,0,896.74,62.5,332.88s7.32-58.52,17.29-74.48,29.26-35.9,29.26-35.9Z"/><polygon class="cls-4" points="83.83 899.03 91.76 1134.52 257.99 1141.44 276.61 920.16 291.24 1141.44 563.86 1141.44 425.53 908.74 83.83 899.03"/><path class="cls-5" d="M288.37,87l-74.28-.89s-4.92-22.61-17.33-21.28C186.31,65.91,184.34,77,192,84.49c3.61,57.26-9.23,109.41-9.23,109.41S59,225,66,152.46c2.31-24.09,39.82-37.24,41.67-45S98,95.51,99.27,85.75c1.46-11,21.46-16.71,21.47-26.16,0-5.12-3.11-15.3,2.88-23.05C136.07,20.39,156.26,6.88,174.15,2.4c47-11.74,69.6,23.39,69.6,23.39S283.4,42.38,288.37,87Z"/><path class="cls-6" d="M343.93,716.54l172-30.25L323.85,287.45s-23.3-69.28-65.89-54.21-51.39,28.38,0,193.28S343.93,716.54,343.93,716.54Z"/><circle class="cls-3" cx="370.74" cy="1213.5" r="20.41"/><circle class="cls-3" cx="203.27" cy="1213.5" r="20.41"/><circle class="cls-3" cx="192.95" cy="105.53" r="21.14"/></g></svg>