<svg xmlns="http://www.w3.org/2000/svg" viewBox="0 0 601.34 656.32"><defs><style>.cls-1{fill:#f69277;}.cls-1,.cls-5{opacity:0.66;}.cls-2{fill:#fff;}.cls-3{fill:#d9127a;}.cls-4{fill:#010101;}.cls-5{fill:#e9ae8c;}.cls-6{fill:none;stroke:#010101;stroke-miterlimit:10;stroke-width:2px;}.cls-7{fill:#d4d7cc;}.cls-7,.cls-8{opacity:0.13;}.cls-8{fill:#ed157c;}</style></defs><g id="portrait"><path class="cls-1" d="M567.05,244.65s-19.43,69.46-53.27,136.44C482,444,437.56,504.66,384.55,503.73c-6.3-.11-10.48-1.11-13-2.8-15.42-10.23,29.22-45.85,26.18-63.34-.57-3.33-2.88-6-7.65-7.72-34-12.22-150,182.78-202,159.78-6.86-3-10.41-6.9-11.48-11.38-5.89-24.74,63.85-68.2,71.24-93.09,1.43-4.82.52-8.93-3.7-12.09C214.05,450.65,54.38,645.75,2.49,591.54c-12.76-13.33,25.12-64.09,75.78-120.79,29.77-33.32,64-68.68,94.88-99.71,50.26-50.44,91.9-89.39,91.9-89.39l170.62-20.9Z"/><path class="cls-2" d="M596.35,178.68C579.28,269.84,547,343.16,513.78,381.09c-16.4,18.73-33,28.83-48.16,28.19-35.2-1.5-9.28-55.33,4.57-80.11-17.53,28.68-63.52,97.36-99.42,93-45.31-5.46,0-86.83,0-86.83S300.92,424.46,275.44,415c-25.14-9.3,6.69-59.46,7.53-60.77-2.27,2.55-174,195.19-203.85,125a15.78,15.78,0,0,1-.85-8.52c.66-4.62,2.81-9.95,6.2-15.91C114.32,402.24,240.06,301,282.05,215.51,333.41,110.86,354.72-12.29,492.27,1c37,3.57,93.7,24.49,106.45,96.59C602.61,119.54,602.42,146.26,596.35,178.68Z"/><rect class="cls-3" x="536.87" y="154.86" width="27.11" height="3.73" rx="0.56"/><rect class="cls-3" x="536.87" y="168.34" width="27.11" height="3.73" rx="0.56"/><rect class="cls-3" x="536.87" y="161.6" width="27.11" height="3.73" rx="0.56"/><rect class="cls-3" x="340.78" y="158.02" width="27.47" height="3.78" rx="0.56"/><rect class="cls-3" x="340.78" y="171.67" width="27.47" height="3.78" rx="0.56"/><rect class="cls-3" x="340.78" y="164.85" width="27.47" height="3.78" rx="0.56"/><circle class="cls-4" cx="510.01" cy="136.65" r="19"/><circle class="cls-4" cx="393.01" cy="136.65" r="19"/><circle class="cls-2" cx="401.01" cy="128.65" r="5.5"/><circle class="cls-2" cx="406.51" cy="137.15" r="3"/><circle class="cls-2" cx="517.01" cy="128.65" r="5.5"/><circle class="cls-2" cx="522.51" cy="137.15" r="3"/><path class="cls-5" d="M157.1,613.16c-13.19,25.89-72.77,58.56-86.37,35.11a12.06,12.06,0,0,1-1.52-4.37c-3.86-26,72.77-69.42,88.4-46.93C160.74,601.47,160.18,607.13,157.1,613.16Z"/><path class="cls-6" d="M427.05,165.52s1.92,19.13,17.89,19.13,24.11-19.13,24.11-19.13"/><path class="cls-7" d="M596.35,178.68C579.28,269.84,547,343.16,513.78,381.09,482,444,437.56,504.66,384.55,503.73c-6.3-.11-10.48-1.11-13-2.8,3.38-17.88,42.3-51.41,26.18-63.34-.57-3.33-2.88-6-7.65-7.72-34-12.22-150,182.78-202,159.78-6.86-3-10.41-6.9-11.48-11.38,12.63-29.66,79.56-72.57,71.24-93.09,1.43-4.82.52-8.93-3.7-12.09C214.05,450.65,54.38,645.75,2.49,591.54c-12.76-13.33,25.12-64.09,75.78-120.79.66-4.62,2.81-9.95,6.2-15.91l.43-.52c13.56-20.78,38.35-47.49,66.31-77.21l.43-.1.19-.2q10.59-2.76,21.32-5.77c93.35-26.22,193-66.65,260.49-109l2-1.28c.74-.46,1.47-.93,2.2-1.4,42-27,78.14-56.43,107-87.27,1.16-1.25,2.31-2.49,3.45-3.74.92-1,1.82-2,2.72-3,1.11-1.24,2.22-2.49,3.31-3.74.87-1,1.74-2,2.59-3q1.6-1.86,3.16-3.73a317.11,317.11,0,0,0,38.62-57.29C602.61,119.54,602.42,146.26,596.35,178.68Z"/><path class="cls-8" d="M157.1,613.16c-13.19,25.89-72.77,58.56-86.37,35.11a12.06,12.06,0,0,1-1.52-4.37c16.36-25.61,73-53.68,86.27-34.16A12.3,12.3,0,0,1,157.1,613.16Z"/></g></svg>