<svg xmlns="http://www.w3.org/2000/svg" viewBox="0 0 392.38 487.04"><defs><style>.cls-1{fill:#f69277;}</style></defs><g id="footprints"><path class="cls-1" d="M190.41,487c-82.2-1-77.76-89.69-101.8-147.06C72.28,301,25.52,277.7,11.09,248.9-2.8,231.09.29,129.83.29,129.83s61.12,18.9,80,39.88c23.32,34.63,49,69.11,70.19,64.25,17.53-32,2.95-64.05-4.57-87.31C140.07,95.69,187,0,187,0s52.83,110.18,52.32,134.85c-1.59,44.58-13.33,89.26,4.49,97,21.78,9.42,48.19-20.31,62.33-58.3,20.37-33.49,85.07-68.83,85.07-68.83S397.44,208.2,381.08,242c-31.94,40.63-90.56,87.72-90.95,131.2C289.22,475.49,232.22,487.52,190.41,487Z"/></g></svg>