<svg xmlns="http://www.w3.org/2000/svg" viewBox="0 0 583.57 638.11"><defs><style>.cls-1{fill:#e9ae8c;}.cls-2{fill:#f69277;}.cls-3{fill:#f5f5f5;opacity:0.39;}.cls-4{fill:#222;}</style></defs><g id="portrait"><path class="cls-1" d="M57.43,521.82C155.22,661.59,317.64,668,379,580.29s38-198.81,76-245.59,134.49-146.19,52.63-233.91S349.8,117.9,262.09,140.05,64.74,132.93,22.34,229.44C-43.6,379.54,57.43,521.82,57.43,521.82Z"/><polygon class="cls-2" points="583.57 76.65 495.85 111.1 583.57 0 583.57 76.65"/><path class="cls-3" d="M311.39,273.07s84.31,60.66,90.66,92.82c9.6,48.56-5.33,94.21-5.33,94.21S373.26,334.52,311.39,273.07Z"/><polygon class="cls-4" points="40.05 469.27 54.78 492.1 47.42 551.74 40.05 510.5 29.01 534.07 35.63 498.72 23.85 503.14 34.16 489.89 5.45 492.83 30.11 478.84 15.02 469.27 40.05 469.27"/></g></svg>