<svg xmlns="http://www.w3.org/2000/svg" viewBox="0 0 642.33 367.36"><defs><style>.cls-1{fill:#9bc1bc;}.cls-2{opacity:0.27;}.cls-3{fill:#5ca4a9;}.cls-4{fill:#d4d7cc;opacity:0.37;}</style></defs><g id="portrait"><path class="cls-1" d="M438.8,300a154,154,0,0,1-264.51-16.82,152,152,0,0,1-13.46-38.49v0a153.7,153.7,0,0,1,41.87-140c3.08-3.08,6.28-6,9.58-8.8A153.87,153.87,0,0,1,415.38,100h0c1.66,1.53,3.3,3.08,4.91,4.69A153.7,153.7,0,0,1,438.8,300Z"/><g class="cls-2"><path class="cls-3" d="M438.8,300a154,154,0,0,1-264.51-16.82,152,152,0,0,1-13.46-38.49v0a153.7,153.7,0,0,1,41.87-140c3.08-3.08,6.28-6,9.58-8.8a159.72,159.72,0,0,0-10.73,97.94v0a157.21,157.21,0,0,0,14,40,159.79,159.79,0,0,0,29.62,40.66C297.71,326.78,377.46,335.28,438.8,300Z"/></g><path class="cls-4" d="M455.83,161.79c-29.53-18.35-61.66-36.67-95.68-54.4-30.36-15.83-60.24-30.13-89-42.76C133,4,20.22-18.07,2.41,16.11-13.66,47,52,114.82,159.49,185.39c.21-1.1.43-2.17.64-3.27v0a148.54,148.54,0,0,1,10-31.14c-25.94-23.23-38.9-42.92-33.08-54.1,6.44-12.4,34.61-11.89,74.44-1.08,36.34,9.85,82.43,28.3,130.6,53.38,50,26.07,92.84,54.37,121.83,79.21,29.54,25.27,44.72,46.92,38.5,58.85C496.82,298,474.85,299,443.07,292a151.91,151.91,0,0,1-21.89,28.49c114.61,44.5,203.13,57.78,218.74,27.82C657.28,315,579.11,238.34,455.83,161.79Z"/></g></svg>