<svg xmlns="http://www.w3.org/2000/svg" viewBox="0 0 1233.96 1316.72"><defs><style>.cls-1{fill:#d4d7cc;opacity:0.74;}.cls-2{fill:#9bc1bc;}.cls-3{fill:#f6d5b6;}.cls-4,.cls-6{fill:#e9ae8c;}.cls-4{opacity:0.58;}.cls-5{fill:#f69277;}.cls-7{fill:#f5f5f5;}</style></defs><g id="portrait"><path class="cls-1" d="M1234,617c0,196.94-92.27,372.34-236,485.29A617.2,617.2,0,0,1,261.6,1121.4C103.35,1009.7,0,825.42,0,617,0,276.24,276.24,0,617,0S1234,276.24,1234,617Z"/><path class="cls-2" d="M1033.74,1173.53A671.09,671.09,0,0,1,233,1194.32c27.4-112,67.4-262.51,91.2-292.26,17.63-22,60.14-46.3,101.3-66.22,26.74-12.94,52.9-24.05,71.31-31.53,15.68-6.37,25.73-10.11,25.73-10.11l-23.77,36.59-.54,4.58-42.57,361.57c0-.17.11-.35.16-.53l124-402.21L680.12,663l.32-.42s1.27.14,3.66.44c26.84,3.38,194.42,27.38,274.14,107.76A156.79,156.79,0,0,1,984.34,805C1023.26,875.05,1032.53,1047.32,1033.74,1173.53Z"/><path class="cls-3" d="M698.35,635.51S622.71,780.72,606.13,820s-139.55,341.39-150.47,377c4-77.25,3.64-205.48,12.94-264.54s30.16-101.61,30.16-101.61l-17.21-232.5,110.83-17,96.27-54.2,65.52,34.79Z"/><path class="cls-4" d="M560.93,611.78,765.14,508.5l8,104S681.54,647.64,647,645.77s-119.77-33.31-119.77-33.31Z"/><path class="cls-3" d="M513,610.83s45,10.52,69.71,4,68.73-21.65,88.18-36.41S721,528.31,721,528.31l33.16-133.48s-18.6-95.46-19.41-102.74S626.35,175.6,626.35,175.6l-93.84-8.09-54.2,8.09-42.88,63.1L405.5,368.94V515.37L429,617Z"/><path class="cls-5" d="M576.6,126.55c22.73,3.31,18.88-14,41-12.94s101.22,21,148.85,103.55c54.48,94.38,64.72,81.43,81.44,125.12,8.19,21.38-5.93,19.42,3.78,42.07s29.12,21.57,36.67,48.54c6.83,24.38-23.58,31.27-15.1,51.77C886.17,515.94,938,528.89,953.59,558s-17.8,49.62-5.93,65.8,64.18,41.53,48.54,92.76-43.15,56.09-43.15,56.09S929.32,750,913.14,747.85s-50.16-5.39-85.21,10.79c-10.41,4.8-52.32-4.32-66.88,0s-76.58,29.12-88.45,14-16.72-46.92,10.79-71.19c-2.7-37.75-11.06-94.65,1.89-122.7s27.23-54.74,31.55-74.69,6.47-70.65,15.1-80.9c-13.49-18.88-20.5-41-17.26-66.88-20.5-4.31-131.6-5.93-128.36-153.17-25.08-18.69-50.16-8.63-64.72-3.23s-17.08-4.14-22.65-3.24c-3.79.61-15.94,5.35-22.65,29.13-5.89,20.86-2.43,91.14-22.65,131.59-12.58,25.1-17.53,46.38-35.6,68,4.85,12.4,13.48,26.69,25.89,106.78,4.67,30.19,34.25,63.37,69,83.06,8.63,31.28,53.39,178.52-4.31,214.65s-126.21-16.18-126.21-16.18c-16.71,7.55-34.51-11.86-34.51-14-21.58,2.69-59.87-4.32-74.43-43.15s-26.43-30.74-38.83-39.91-26.1-51.94,29.12-90.61c21.8-15.25,53.4-18.33,50.16-63.1-2.71-37.46-25.56-48-25-65.77,1.83-60.43,45.1-48.28,57.92-73.91,10.79-21.57-4-39.65,1.36-54.21s28.62-27.77,32.39-48.26,2.57-42.72,5.31-57.66c5.09-27.81,35.91-38.34,48.31-63.15S470.37,111.06,576.6,126.55Z"/><path class="cls-6" d="M492.87,515.37C505,520,522.81,538.24,540.6,538.83c12.14.41,27.36-.64,33.91-5.79,11-8.64,26.5-17.65,26.5-17.65s-8.07-8.52-16.72-17.82c-6.15-6.6-17.8-19.38-28.32-19.41-7.68,0-14.56,4-14.56,4s-6.11-4.91-12.94-4C517.82,479.51,492.87,515.37,492.87,515.37Z"/><path class="cls-7" d="M522.53,510.11s18.48,5.67,26.16,5.26,25.48-4.72,25.48-4.72-11.32-9.44-25.88-9S522.53,510.11,522.53,510.11Z"/></g></svg>