<svg xmlns="http://www.w3.org/2000/svg" viewBox="0 0 1904.63 1096.8"><defs><style>.cls-1{fill:#f69277;opacity:0.8;}</style></defs><g id="footprints"><path class="cls-1" d="M129.21,437c-17.35-71.21,60.25-87,104.48-120.46,30-22.71,39.8-68.25,61.49-87.08,12.31-15.94,100.44-35.68,100.44-35.68s-2.8,57-16.75,77.88c-24.75,27.8-48.84,57.64-40,74.83,31.48,8.07,56-11.63,74.38-23.27C456,306.89,549,326.25,549,326.25s-83.45,70-104.87,75c-38.85,8.5-80,8.24-82.75,25.33-3.31,20.9,28.21,37.13,64.14,40.94,33.43,10.17,78.26,58.23,78.26,58.23S415.8,554,383,547.39c-42.16-18.6-95.79-58.81-133.42-49.52C161,519.73,138,473.16,129.21,437Z"/><path class="cls-1" d="M1023.07,419.18c-17.35-71.21,60.25-87,104.48-120.46,30-22.71,39.8-68.26,61.49-87.09C1201.35,195.7,1289.48,176,1289.48,176s-2.8,57-16.75,77.88c-24.76,27.8-48.84,57.64-40,74.83,31.48,8.06,56-11.63,74.38-23.27,42.73-16.28,135.75,3.08,135.75,3.08s-83.45,70-104.87,75c-38.86,8.49-80,8.24-82.75,25.33-3.31,20.9,28.21,37.13,64.14,40.93,33.43,10.18,78.26,58.24,78.26,58.24s-88,28.27-120.78,21.61c-42.16-18.59-95.79-58.8-133.43-49.51C1054.89,502,1031.89,455.39,1023.07,419.18Z"/><path class="cls-1" d="M1904.63,238.47V461.32A52.48,52.48,0,0,0,1888,462.5c-88.58,21.86-111.58-24.71-120.41-60.92-17.35-71.21,60.25-87,104.48-120.46C1886.33,270.31,1896,254.3,1904.63,238.47Z"/><path class="cls-1" d="M513.4,756.26c-10.94,72.39,67.68,81.21,114.66,110.57C660,886.77,673.73,931.22,697,948c13.67,14.76,103.11,26.56,103.11,26.56s-7.85-56.43-23.58-76c-27.1-25.47-53.72-53-46.41-70.91,30.6-10.82,56.72,6.59,76.08,16.54,44,12.4,134.8-15.13,134.8-15.13s-89.26-62.24-111-65.32c-39.41-5-80.37-1.09-84.58-17.85-5.16-20.5,24.76-39.45,60.18-46.43,32.35-13.1,72.7-64.9,72.7-64.9s-90.1-20.31-122.11-10.78c-40.29,22.25-90.09,67-128.36,61.13C537.71,671.07,519,719.44,513.4,756.26Z"/><path class="cls-1" d="M15,913.69c15.74,19.57,23.59,76,23.59,76S20.86,987.35,0,983.46V899.22C4.82,904.07,9.89,908.92,15,913.69Z"/><path class="cls-1" d="M44,714.59C27,718,11.2,724.09,0,731.83V637.69c35.66-6.27,116.73,12,116.73,12S76.38,701.49,44,714.59Z"/><path class="cls-1" d="M179.45,844.2s-90.84,27.53-134.8,15.13C32.32,853,17.24,843.62,0,840.45V772.26c16.4,3.88,42.74,3.35,68.43,6.62C90.19,782,179.45,844.2,179.45,844.2Z"/><path class="cls-1" d="M1392.37,728.22c-10.93,72.39,67.69,81.21,114.66,110.57,31.89,19.93,45.68,64.38,68.93,81.19,13.66,14.76,103.1,26.57,103.1,26.57s-7.84-56.43-23.58-76c-27.1-25.46-53.72-53-46.4-70.91,30.59-10.82,56.71,6.6,76.07,16.55,44,12.4,134.8-15.13,134.8-15.13s-89.26-62.24-111-65.33c-39.41-5-80.36-1.08-84.58-17.85-5.15-20.5,24.76-39.45,60.18-46.43,32.36-13.1,72.7-64.9,72.7-64.9s-90.1-20.31-122.1-10.77c-40.3,22.24-90.09,67-128.36,61.12C1416.68,643,1397.94,691.4,1392.37,728.22Z"/></g></svg>