<svg xmlns="http://www.w3.org/2000/svg" viewBox="0 0 813.73 1904.63"><defs><style>.cls-1{fill:#f69277;opacity:0.8;}</style></defs><g id="footprints"><path class="cls-1" d="M552.75,129.21c71.2-17.35,87,60.25,120.45,104.48,22.71,30,68.26,39.8,87.09,61.48C776.22,307.49,796,395.61,796,395.61s-57-2.8-77.88-16.74c-27.8-24.76-57.64-48.84-74.83-40-8.06,31.47,11.63,56,23.27,74.38C682.8,456,663.44,549,663.44,549s-70-83.46-75-104.88c-8.49-38.85-8.23-80-25.33-82.74-20.89-3.31-37.13,28.2-40.93,64.14C512,459,463.92,503.82,463.92,503.82s-28.27-88-21.61-120.78c18.59-42.16,58.8-95.79,49.52-133.43C470,161,516.53,138,552.75,129.21Z"/><path class="cls-1" d="M570.52,1023.07c71.2-17.35,87,60.25,120.45,104.47,22.71,30,68.26,39.81,87.09,61.49,15.94,12.31,35.67,100.44,35.67,100.44s-57-2.8-77.87-16.75c-27.81-24.75-57.64-48.83-74.83-40-8.07,31.47,11.62,56,23.26,74.38,16.28,42.73-3.08,135.75-3.08,135.75s-70-83.46-75-104.88c-8.5-38.85-8.24-80-25.34-82.74-20.89-3.31-37.12,28.2-40.93,64.14-10.18,33.43-58.23,78.26-58.23,78.26s-28.28-88-21.62-120.78c18.6-42.16,58.8-95.8,49.52-133.43C487.74,1054.89,534.3,1031.89,570.52,1023.07Z"/><path class="cls-1" d="M233.43,513.4C161,502.46,152.22,581.08,122.86,628.06,102.93,660,58.48,673.73,41.67,697,26.91,710.64,15.1,800.09,15.1,800.09s56.43-7.85,76-23.59c25.46-27.1,53-53.71,70.91-46.4,10.82,30.6-6.6,56.71-16.55,76.08-12.4,44,15.13,134.8,15.13,134.8s62.24-89.26,65.33-111c5-39.42,1.08-80.37,17.85-84.58,20.5-5.16,39.45,24.76,46.43,60.18,13.1,32.35,64.9,72.69,64.9,72.69s20.31-90.09,10.77-122.1c-22.25-40.29-67-90.09-61.12-128.36C318.63,537.71,270.25,519,233.43,513.4Z"/><path class="cls-1" d="M261.48,1392.37c-72.39-10.93-81.21,67.68-110.57,114.66C131,1538.92,86.52,1552.7,69.71,1576,55,1589.62,43.14,1679.06,43.14,1679.06s56.43-7.85,76-23.58c25.47-27.1,53-53.72,70.91-46.41,10.82,30.6-6.59,56.72-16.54,76.08-12.4,44,15.13,134.8,15.13,134.8s62.24-89.26,65.32-111c5-39.41,1.09-80.37,17.85-84.58,20.5-5.16,39.45,24.76,46.43,60.18,13.1,32.36,64.9,72.7,64.9,72.7s20.31-90.1,10.78-122.11c-22.25-40.29-67-90.09-61.13-128.36C346.67,1416.68,298.29,1397.93,261.48,1392.37Z"/></g></svg>