<svg id="Layer_1" data-name="Layer 1" xmlns="http://www.w3.org/2000/svg" viewBox="0 0 1345.39 823.74"><defs><style>.cls-1{fill:#29abe2;}.cls-2{fill:#42210b;}</style></defs><rect class="cls-1" x="317.66" y="165.69" width="533.9" height="440.74" rx="37.18"/><path d="M814.39,166.19a36.73,36.73,0,0,1,36.68,36.68V569.25a36.72,36.72,0,0,1-36.68,36.68H354.84a36.72,36.72,0,0,1-36.68-36.68V202.87a36.73,36.73,0,0,1,36.68-36.68H814.39m0-1H354.84a37.68,37.68,0,0,0-37.68,37.68V569.25a37.68,37.68,0,0,0,37.68,37.68H814.39a37.68,37.68,0,0,0,37.68-37.68V202.87a37.68,37.68,0,0,0-37.68-37.68Z"/><polygon class="cls-2" points="347.61 380.29 351.98 370.66 497.2 278.32 500.52 287.21 360.84 376.02 488.63 448.54 484.39 457.9 347.61 380.29"/><path d="M497,279.07l3,7.93L361.27,375.16l-1.4.89,1.45.82L488,448.75l-3.83,8.45-135.9-77.12,4.11-9.08L497,279.07m.51-1.5L351.69,370.25l-.06,0-.05.1-.08.05,0,.07L347,380.5l137.65,78.11,4.66-10.28L361.81,376l139.33-88.59-3.68-9.84Z"/><polygon class="cls-2" points="637.28 448.48 780.66 365.77 656.11 287.81 660.75 278.64 794.06 362.08 789.29 371.51 640.21 457.5 637.28 448.48"/><path d="M661,279.35l132.46,82.91-4.5,8.89L640.5,456.76l-2.62-8.05,142.31-82.09,1.44-.84-1.41-.88L656.77,287.63l4.18-8.28m-.39-1.42L655.46,288l124.23,77.76-143,82.5,3.25,10,149.63-86.32.06,0,0-.1.08,0,0-.08,5-9.84-134.15-84Z"/><rect class="cls-2" x="448.6" y="355.08" width="237.97" height="14.48" transform="translate(6.35 734.4) rotate(-66.1)"/><path d="M609.43,251.27l12.33,5.46-96,216.65-12.33-5.47,96-216.64m-.51-1.32L512.09,468.42l14.15,6.27,96.84-218.47L608.92,250Z"/></svg>