<svg id="Layer_1" data-name="Layer 1" xmlns="http://www.w3.org/2000/svg" viewBox="0 0 1920 1080"><defs><style>.cls-1{fill:#fff;}.cls-2{fill:#ff931e;}.cls-2,.cls-3,.cls-4{stroke:#000;stroke-miterlimit:10;}.cls-4{fill:none;}</style></defs><rect class="cls-1" x="545.5" y="278.79" width="533.9" height="440.74" rx="37.18"/><path d="M1042.23,279.29A36.71,36.71,0,0,1,1078.9,316V682.35A36.72,36.72,0,0,1,1042.23,719H582.68A36.72,36.72,0,0,1,546,682.35V316a36.72,36.72,0,0,1,36.68-36.68h459.55m0-1H582.68A37.68,37.68,0,0,0,545,316V682.35A37.68,37.68,0,0,0,582.68,720h459.55a37.67,37.67,0,0,0,37.67-37.68V316a37.67,37.67,0,0,0-37.67-37.68Z"/><path class="cls-2" d="M773.08,384.16l287.18-1.28C1047.47,428,967.74,704,894.87,697,842.71,692,799,542.35,784.62,472.63A607.57,607.57,0,0,1,773.08,384.16Z"/><path class="cls-2" d="M854.36,325.59c-19.94,190.07-97.81,316.3-155.13,314.11C642.7,637.54,576.6,509.3,567.18,326.88"/><line class="cls-2" x1="567.18" y1="327.08" x2="854.36" y2="325.8"/><path class="cls-3" d="M613.13,396c2.31-13.9,15-23.29,27.87-21.68,11.27,1.41,20.54,11,21.68,23.23"/><path class="cls-3" d="M721.52,399.06c0-14.51,12.12-25.54,24.77-24.77C757,374.94,766.55,384,768,396"/><path class="cls-3" d="M853.13,465.23c4.57-19.42,20-28.79,31-24.13,7.46,3.18,12.79,12.87,13.93,24.13"/><path class="cls-3" d="M949.13,462.73c1.49-13.75,13.9-23.31,26.32-21.68,10.89,1.44,19.76,11.23,20.13,23.23"/><path class="cls-4" d="M655,482.83a59.36,59.36,0,0,0,35.57,13.78c22,.81,36.87-11.2,40.29-14.12,3.39,25-15.93,46.27-37.19,46.64C672.05,529.51,651.81,508.31,655,482.83Z"/><path d="M655,482.83a59.36,59.36,0,0,0,35.57,13.78c22,.81,36.87-11.2,40.29-14.12,3.39,25-15.93,46.27-37.19,46.64C672.05,529.51,651.81,508.31,655,482.83Z"/><path class="cls-3" d="M880.45,527.58c3.43-3.26,13.26,9.24,34.06,10.84,21.71,1.66,33.83-10.21,37.17-6.19,4.9,5.91-12.19,42.71-37.17,41.8C888.72,573.09,875.09,532.68,880.45,527.58Z"/><path class="cls-2" d="M724.15,633.32a493.36,493.36,0,0,0,57.75-88.71A529.07,529.07,0,0,0,809.77,478c11.94-34.66,26-86.2,31-152.17"/><path class="cls-2" d="M894.87,697a183.29,183.29,0,0,0,21.36-15.66A185.77,185.77,0,0,0,937.52,660c3.26-3.86,11.88-14.37,26.32-40.65,9.09-16.54,14.79-29,24-49.16,8.67-19,13.48-29.55,19.35-44.9,1.95-5.1,3-8.16,16.26-47.61,8-23.76,12-35.73,13.55-40.65,4.12-12.85,9.86-31.32,16.25-54.09"/></svg>