<svg id="Layer_1" data-name="Layer 1" xmlns="http://www.w3.org/2000/svg" viewBox="0 0 2012.92 1388.9"><defs><style>.cls-1{fill:gray;}.cls-2{font-size:86.46px;font-family:Algerian;}</style></defs><rect class="cls-1" x="713.77" y="474.08" width="533.9" height="440.74" rx="77.11"/><path d="M1170.56,474.58a76.69,76.69,0,0,1,76.61,76.61V837.71a76.69,76.69,0,0,1-76.61,76.61H790.88a76.7,76.7,0,0,1-76.61-76.61V551.19a76.7,76.7,0,0,1,76.61-76.61h379.68m0-1H790.88a77.61,77.61,0,0,0-77.61,77.61V837.71a77.61,77.61,0,0,0,77.61,77.61h379.68a77.61,77.61,0,0,0,77.61-77.61V551.19a77.61,77.61,0,0,0-77.61-77.61Z"/><text class="cls-2" transform="translate(781.41 711.12)"><tspan xml:space="preserve">    GAME </tspan></text></svg>