<svg id="Layer_1" data-name="Layer 1" xmlns="http://www.w3.org/2000/svg" xmlns:xlink="http://www.w3.org/1999/xlink" viewBox="0 0 1407.48 1430.71"><defs><style>.cls-1{fill:url(#radial-gradient);}.cls-2{fill:url(#linear-gradient);}.cls-3{fill:#b3b3b3;}</style><radialGradient id="radial-gradient" cx="692.13" cy="711.12" r="93.56" gradientUnits="userSpaceOnUse"><stop offset="0" stop-color="#fff"/><stop offset="1"/></radialGradient><linearGradient id="linear-gradient" x1="472.76" y1="600.39" x2="532.14" y2="600.39" xlink:href="#radial-gradient"/></defs><rect x="425.18" y="490.75" width="533.9" height="440.74" rx="77.11"/><path d="M882,491.25a76.7,76.7,0,0,1,76.61,76.61V854.38A76.7,76.7,0,0,1,882,931H502.29a76.69,76.69,0,0,1-76.61-76.61V567.86a76.69,76.69,0,0,1,76.61-76.61H882m0-1H502.29a77.61,77.61,0,0,0-77.61,77.61V854.38A77.61,77.61,0,0,0,502.29,932H882a77.61,77.61,0,0,0,77.61-77.61V567.86A77.61,77.61,0,0,0,882,490.25Z"/><circle class="cls-1" cx="692.13" cy="711.12" r="93.56"/><path d="M692.13,618.06a93.06,93.06,0,1,1-93.07,93.06,93.16,93.16,0,0,1,93.07-93.06m0-1a94.06,94.06,0,1,0,94.06,94.06,94.07,94.07,0,0,0-94.06-94.06Z"/><rect class="cls-2" x="472.76" y="539.82" width="59.39" height="121.13"/><path d="M531.65,540.32V660.45H473.26V540.32h58.39m1-1H472.26V661.45h60.39V539.32Z"/><rect class="cls-3" x="821.14" y="555.6" width="88.81" height="68.29"/><path d="M909.45,556.1v67.29h-87.8V556.1h87.8m1-1h-89.8v69.29h89.8V555.1Z"/><path class="cls-3" d="M494.71,744.27a22,22,0,1,1,21.95-21.95A22,22,0,0,1,494.71,744.27Z"/><path d="M494.71,700.87a21.45,21.45,0,1,1-21.45,21.45,21.47,21.47,0,0,1,21.45-21.45m0-1a22.45,22.45,0,1,0,22.45,22.45,22.45,22.45,0,0,0-22.45-22.45Z"/></svg>