<svg id="Layer_1" data-name="Layer 1" xmlns="http://www.w3.org/2000/svg" viewBox="0 0 160.13 278.64"><defs><style>.cls-1{fill:#42210b;}.cls-1,.cls-2{stroke:#000;stroke-miterlimit:10;}.cls-2{fill:#fff;}</style></defs><path class="cls-1" d="M982.3,511.58l7.55-3.69L929.4,380.58,924.53,383l-6.09-2.38-59.57,127.7,8.44,3.3,54.23-116.27v84.23a8.78,8.78,0,1,0,5.65,0V395.49Z" transform="translate(-838.05 -312.41)"/><rect class="cls-1" x="64.12" y="241.49" width="44.39" height="7.74"/><rect class="cls-1" x="51.21" y="249.23" width="68.13" height="28.9"/><path class="cls-2" d="M913,553.9a63.92,63.92,0,0,0-22.19-31.48,62.5,62.5,0,0,0-23.5-10.84" transform="translate(-838.05 -312.41)"/><path class="cls-2" d="M937.77,553.9a71.21,71.21,0,0,1,44.53-42.32" transform="translate(-838.05 -312.41)"/><path class="cls-2" d="M867.58,369.13c-17.3-9-30.46-22.09-28.9-33.55C841,318.67,875.15,307.11,898,316c14,5.42,22.57,18,29.94,28.9,11.93,17.61,8.88,23.87,19.61,34.58,11.5,11.49,31,20.23,40.77,13.42,6.35-4.41,8-14.91,8.78-19.61a44.85,44.85,0,0,0,0-13.94" transform="translate(-838.05 -312.41)"/></svg>