<svg id="Layer_1" data-name="Layer 1" xmlns="http://www.w3.org/2000/svg" viewBox="0 0 320.42 314.1"><defs><style>.cls-1{fill:#fff;}.cls-2,.cls-3{fill:blue;}.cls-2{stroke:#000;stroke-miterlimit:10;}</style></defs><rect class="cls-1" x="2.5" y="2.5" width="315.42" height="309.1" rx="62.88"/><path d="M757.16,203.51a60.46,60.46,0,0,1,60.39,60.39V447.23a60.46,60.46,0,0,1-60.39,60.39H567.51a60.46,60.46,0,0,1-60.38-60.39V263.9a60.46,60.46,0,0,1,60.38-60.39H757.16m0-5H567.51a65.39,65.39,0,0,0-65.38,65.39V447.23a65.39,65.39,0,0,0,65.38,65.39H757.16a65.39,65.39,0,0,0,65.39-65.39V263.9a65.39,65.39,0,0,0-65.39-65.39Z" transform="translate(-502.13 -198.51)"/><path class="cls-2" d="M733.87,321.59a92.43,92.43,0,0,0-35.09,12.82s-12.18,7.24-20.46,17.25a45.93,45.93,0,0,0-3.88,5.55,35.79,35.79,0,0,0-3.48,8h0V321.59H621.35V483.13H671V388.26h0c2.09.55,4.44-11.87,14.52-26.93,5.65-8.44,10-12.1,11-13,4.09-3.39,8.47-5.81,13.33-8.51,2.16-1.2,4.76-2.64,8.41-4.26,5.35-2.38,8.4-3.48,8.4-3.48,4.69-1.71,6.23-1.87,7.22-3.36V483.13h49.6V321.59Z" transform="translate(-502.13 -198.51)"/><rect class="cls-3" x="50.76" y="83.83" width="38.92" height="200.28"/><path d="M591.32,282.85V482.13H553.39V282.85h37.93m1-1H552.39V483.13h39.93V281.85Z" transform="translate(-502.13 -198.51)"/><ellipse class="cls-2" cx="70.23" cy="44.87" rx="22.99" ry="24.36"/></svg>