<svg id="Layer_1" data-name="Layer 1" xmlns="http://www.w3.org/2000/svg" viewBox="0 0 729.49 576.92"><defs><style>.cls-1{fill:#c69c6d;}.cls-2{fill:aqua;}.cls-3{fill:none;stroke:#000;stroke-miterlimit:10;stroke-width:7px;}</style></defs><rect class="cls-1" x="5" y="5" width="719.49" height="566.92" rx="71.07"/><path d="M1202.79,222.78a66.14,66.14,0,0,1,66.06,66.07V713.64a66.14,66.14,0,0,1-66.06,66.07H625.43a66.14,66.14,0,0,1-66.06-66.07V288.85a66.14,66.14,0,0,1,66.06-66.07h577.36m0-10H625.43a76.06,76.06,0,0,0-76.06,76.07V713.64a76.06,76.06,0,0,0,76.06,76.07h577.36a76.06,76.06,0,0,0,76.06-76.07V288.85a76.06,76.06,0,0,0-76.06-76.07Z" transform="translate(-549.37 -212.78)"/><rect class="cls-2" x="94.74" y="253.77" width="540" height="254"/><path d="M1180.61,470.05v247h-533v-247h533m7-7h-547v261h547v-261Z" transform="translate(-549.37 -212.78)"/><polygon class="cls-2" points="96 251.45 352.57 50.85 631.73 249.09 375.15 449.68 96 251.45"/><path d="M902,268l273.2,194L924.42,658.1l-273.19-194L902,268m-.2-8.73L639.52,464.37l285.1,202.46L1187,461.74,901.84,259.27Z" transform="translate(-549.37 -212.78)"/><line class="cls-3" x1="93.96" y1="251.38" x2="637.59" y2="252.09"/></svg>