<svg id="Layer_1" data-name="Layer 1" xmlns="http://www.w3.org/2000/svg" viewBox="0 0 653.37 383.27"><defs><style>.cls-1{fill:#42210b;}</style></defs><polygon class="cls-1" points="0.66 215.03 4.07 206.97 3.9 206.72 230.28 55.14 234.91 62.06 12.79 210.79 234.85 304.71 231.48 312.66 0.66 215.03"/><path d="M606.71,239l4.08,6.09L389.84,393l-1.53,1,1.7.72,220.75,93.37-3,7-229.9-97.24,3.11-7.35.21-.5,0-.06L606.71,239m.28-1.39L379.77,389.74l.3.44-3.5,8.27,231.75,98,3.75-8.87L390.4,393.84,612.18,245.35,607,237.6Z" transform="translate(-376.57 -183.15)"/><rect class="cls-1" x="481.56" y="368.61" width="415.55" height="12.36" transform="translate(-317.94 658.38) rotate(-65.04)"/><path d="M771.67,184.48l10.3,4.8L607,565.1l-10.3-4.8,175-375.82m-.48-1.33L595.38,560.79l12.11,5.64L783.3,188.79l-12.11-5.64Z" transform="translate(-376.57 -183.15)"/><polygon class="cls-1" points="418.45 313.46 640.58 164.73 418.52 70.81 421.88 62.86 652.71 160.49 649.3 168.55 649.47 168.8 423.08 320.38 418.45 313.46"/><path d="M798.71,246.67l229.91,97.24-3.11,7.35-.21.5,0,.06-225.55,151-4.08-6.09,220.94-147.93,1.54-1-1.7-.72L795.74,253.7l3-7m-.53-1.31-3.75,8.87L1016.1,348,794.32,496.48l5.19,7.75,227.22-152.14-.3-.44,3.5-8.27-231.75-98Z" transform="translate(-376.57 -183.15)"/></svg>